<?xml version="1.0" standalone="no"?>
<!DOCTYPE svg PUBLIC "-//W3C//DTD SVG 20010904//EN"
 "http://www.w3.org/TR/2001/REC-SVG-20010904/DTD/svg10.dtd">
<svg version="1.0" xmlns="http://www.w3.org/2000/svg"
 width="358.000000pt" height="350.000000pt" viewBox="0 0 358.000000 350.000000"
 preserveAspectRatio="xMidYMid meet">

<g transform="translate(0.000000,350.000000) scale(0.100000,-0.100000)"
fill="#000000" stroke="none">
<path d="M0 1750 l0 -1750 1790 0 1790 0 0 1750 0 1750 -827 -1 c-487 -1 -801
-5 -763 -10 470 -59 909 -331 1172 -723 96 -143 208 -386 233 -504 l7 -33 -47
3 -47 3 -34 94 c-142 400 -436 724 -826 911 -56 27 -104 47 -107 45 -2 -2 22
-33 54 -67 123 -132 236 -337 308 -553 61 -184 94 -343 124 -605 l8 -65 323 4
322 4 0 -58 0 -58 -320 5 -320 6 -2 -94 c-1 -52 -2 -104 -2 -116 l-1 -23 323
4 322 4 0 -58 0 -58 -324 6 c-303 6 -325 6 -330 -11 -2 -9 -7 -48 -11 -87 -36
-378 -213 -838 -393 -1022 -32 -33 -50 -43 -74 -43 -18 0 -51 -13 -77 -29 -69
-45 -151 -79 -201 -86 l-45 -5 51 19 c286 106 513 499 613 1059 101 566 -12
1262 -270 1657 -71 109 -123 169 -194 222 -214 162 -435 143 -636 -57 -41 -41
-91 -97 -109 -125 -231 -340 -348 -851 -320 -1392 10 -195 12 -216 41 -373 61
-338 187 -632 350 -822 27 -31 49 -59 49 -62 0 -3 -97 -6 -215 -6 -118 0 -215
-3 -215 -7 0 -4 17 -24 37 -46 64 -65 256 -113 493 -123 185 -8 309 6 498 57
262 71 493 204 691 398 159 157 282 337 367 538 l39 93 43 0 c52 0 52 -4 8
-118 -156 -406 -452 -728 -841 -917 -564 -275 -1247 -211 -1740 163 -93 71
-242 219 -306 305 -45 60 -59 87 -59 113 0 21 -19 73 -51 137 -29 56 -69 147
-90 202 -36 96 -39 100 -73 108 -51 13 -44 27 12 27 l49 0 28 -73 c123 -316
338 -588 610 -769 79 -53 234 -138 251 -138 3 0 -24 33 -61 73 -127 138 -264
373 -335 572 -46 130 -84 298 -110 475 -20 137 -22 182 -17 390 7 309 39 502
127 755 71 204 204 431 335 573 37 40 64 72 60 72 -13 0 -162 -78 -222 -117
-149 -94 -308 -239 -432 -393 l-76 -95 -3 67 c-3 63 0 72 34 125 48 78 238
263 347 340 210 148 480 257 734 297 79 12 3 14 -714 15 l-803 1 0 -1750z
m2111 1380 c229 -116 401 -482 471 -1000 16 -124 16 -546 0 -670 -41 -310
-127 -581 -236 -750 l-46 -70 -334 0 -335 0 -24 32 c-28 38 -87 142 -87 153 0
4 20 -11 44 -33 57 -53 97 -73 160 -79 71 -7 127 11 189 60 44 37 117 128 117
148 0 3 -119 6 -265 6 -200 0 -268 3 -280 13 -19 15 -68 170 -95 300 -40 193
-53 357 -47 625 6 309 28 457 103 709 138 460 407 686 665 556z m-1638 -1146
c12 -4 17 -16 17 -43 l0 -38 -137 -6 c-75 -4 -171 -7 -215 -7 l-78 0 0 48 c0
27 3 52 8 56 7 8 373 -1 405 -10z m3 -331 c9 -3 14 -20 14 -43 l0 -37 -205 -7
c-113 -4 -209 -4 -215 -1 -5 3 -10 29 -10 57 l0 51 201 -7 c111 -4 208 -10
215 -13z"/>
<path d="M1774 2387 c-3 -8 -4 -49 -2 -93 l3 -79 75 -5 75 -5 5 -460 5 -460
85 0 85 0 3 463 2 462 68 0 c40 0 73 5 80 12 7 7 12 42 12 89 0 61 -3 78 -16
83 -9 3 -119 6 -245 6 -183 0 -231 -3 -235 -13z"/>
<path d="M1088 3030 c-44 -34 -90 -115 -86 -152 4 -43 34 -58 120 -58 91 0
109 10 146 86 56 113 38 144 -84 144 -56 0 -77 -4 -96 -20z"/>
<path d="M907 2708 c-18 -14 -67 -127 -67 -156 0 -41 30 -52 146 -52 73 0 115
4 126 13 20 15 48 100 48 143 0 52 -27 64 -140 64 -61 0 -102 -5 -113 -12z"/>
<path d="M803 2375 c-22 -15 -43 -87 -43 -145 0 -52 19 -60 146 -60 64 0 124
5 134 10 22 12 39 66 42 130 2 68 -20 80 -151 80 -78 0 -112 -4 -128 -15z"/>
<path d="M751 2043 c-16 -14 -22 -34 -27 -89 -6 -64 -4 -74 15 -93 19 -19 32
-21 145 -21 97 0 128 3 139 15 21 21 33 140 17 170 -16 31 -35 35 -161 35 -87
0 -111 -3 -128 -17z"/>
<path d="M739 1709 c-18 -18 -20 -29 -15 -67 3 -24 6 -55 6 -68 0 -13 9 -33
20 -44 18 -18 33 -20 138 -20 159 0 165 4 160 112 -4 106 -7 108 -165 108
-112 0 -125 -2 -144 -21z"/>
<path d="M775 1376 c-14 -21 -15 -33 -4 -87 20 -99 34 -109 167 -109 90 0 113
3 130 18 26 21 28 33 18 102 -14 99 -16 100 -166 100 -126 0 -130 -1 -145 -24z"/>
<path d="M892 1070 c-40 -17 -45 -53 -16 -126 35 -87 47 -94 164 -94 141 0
159 19 124 133 -9 29 -27 62 -41 75 -21 20 -34 22 -116 21 -51 0 -102 -4 -115
-9z"/>
<path d="M1040 730 c-32 -32 -25 -68 30 -142 l50 -68 85 0 c72 0 88 3 105 20
11 11 20 29 20 41 0 28 -67 147 -90 159 -10 6 -55 10 -99 10 -68 0 -84 -3
-101 -20z"/>
</g>
</svg>
